HIERARCHY
ROOT Hips
{
 OFFSET 0.000000 0.000000 0.000000
 CHANNELS 6 Xposition Yposition Zposition Yrotation Xrotation Zrotation
 JOINT Chest
 {
  OFFSET 0.000000 11.395451 -0.039534
  CHANNELS 3 Yrotation Xrotation Zrotation
  JOINT Chest2
  {
   OFFSET 0.000000 9.398669 0.071813
   CHANNELS 3 Yrotation Xrotation Zrotation
   JOINT Chest3
   {
    OFFSET 0.000000 8.489801 0.000000
    CHANNELS 3 Yrotation Xrotation Zrotation
    JOINT Chest4
    {
     OFFSET 0.000000 8.489801 0.000000
     CHANNELS 3 Yrotation Xrotation Zrotation
     JOINT Neck
     {
      OFFSET 0.000000 12.404889 0.000000
      CHANNELS 3 Yrotation Xrotation Zrotation
      JOINT Head
      {
       OFFSET 0.000000 8.903270 0.092239
       CHANNELS 3 Yrotation Xrotation Zrotation
       End Site
       {
        OFFSET 0.000000 17.592497 0.007158
       }
      }
     }
     JOINT RightCollar
     {
      OFFSET -3.196775 6.966722 0.000000
      CHANNELS 3 Yrotation Xrotation Zrotation
      JOINT RightShoulder
      {
       OFFSET -15.955896 0.000000 0.000000
       CHANNELS 3 Yrotation Xrotation Zrotation
       JOINT RightElbow
       {
        OFFSET -24.792472 0.000000 0.000000
        CHANNELS 3 Yrotation Xrotation Zrotation
        JOINT RightWrist
        {
         OFFSET -20.900115 0.000000 0.025002
         CHANNELS 3 Yrotation Xrotation Zrotation
         End Site
         {
          OFFSET -16.056692 0.000000 0.000000
         }
        }
       }
      }
     }
     JOINT LeftCollar
     {
      OFFSET 3.196775 6.966722 0.000000
      CHANNELS 3 Yrotation Xrotation Zrotation
      JOINT LeftShoulder
      {
       OFFSET 15.955896 0.000000 0.000000
       CHANNELS 3 Yrotation Xrotation Zrotation
       JOINT LeftElbow
       {
        OFFSET 24.792472 0.000000 0.000000
        CHANNELS 3 Yrotation Xrotation Zrotation
        JOINT LeftWrist
        {
         OFFSET 20.900115 0.000000 0.025002
         CHANNELS 3 Yrotation Xrotation Zrotation
         End Site
         {
          OFFSET 16.056692 0.000000 0.000000
         }
        }
       }
      }
     }
    }
   }
  }
 }
 JOINT RightHip
 {
  OFFSET -9.568995 0.193718 0.019767
  CHANNELS 3 Yrotation Xrotation Zrotation
  JOINT RightKnee
  {
   OFFSET 0.000000 -56.649296 0.015402
   CHANNELS 3 Yrotation Xrotation Zrotation
   JOINT RightAnkle
   {
    OFFSET 0.000000 -41.365147 0.021264
    CHANNELS 3 Yrotation Xrotation Zrotation
    JOINT RightToe
    {
     OFFSET 0.000000 -7.465940 17.672538
     CHANNELS 3 Yrotation Xrotation Zrotation
     End Site
     {
      OFFSET 0.000000 -1.736315 7.837145
     }
    }
   }
  }
 }
 JOINT LeftHip
 {
  OFFSET 9.568995 0.193718 0.019767
  CHANNELS 3 Yrotation Xrotation Zrotation
  JOINT LeftKnee
  {
   OFFSET 0.000000 -56.649296 0.015402
   CHANNELS 3 Yrotation Xrotation Zrotation
   JOINT LeftAnkle
   {
    OFFSET 0.000000 -41.365147 0.021264
    CHANNELS 3 Yrotation Xrotation Zrotation
    JOINT LeftToe
    {
     OFFSET 0.000000 -7.465940 17.672538
     CHANNELS 3 Yrotation Xrotation Zrotation
     End Site
     {
      OFFSET 0.000000 -1.736315 7.837145
     }
    }
   }
  }
 }
}
MOTION
Frames: 9
Frame Time: 0.016667
60.184797 50.472369 96.166624 161.542423 6.631371 -0.097910 -2.728491 5.523292 -3.191076 -1.173165 2.473456 -1.384026 -1.173165 2.473456 -1.384026 -0.874137 1.857768 -1.033112 -3.460751 11.612793 3.470056 -8.132332 -14.252439 8.146153 4.321495 4.853553 1.275754 82.184253 -49.325148 7.962015 18.806193 15.169779 0.451673 -5.973757 2.170673 -6.501470 -0.681056 10.588270 3.313753 -78.368149 -45.417783 -3.480895 -33.756212 21.551294 -7.182680 3.692168 -4.978291 6.070297 115.182498 -79.342011 -126.218125 175.752398 86.479367 179.593366 12.000571 -4.803039 6.529849 0.000000 -0.000000 0.000000 159.280121 -82.935808 -146.796428 169.689559 86.964094 165.068421 -11.012146 -4.329604 1.744435 0.000000 0.000000 0.000000
60.186900 50.471725 96.164821 161.540934 6.624138 -0.101244 -2.724496 5.524858 -3.194923 -1.171334 2.474147 -1.385771 -1.171334 2.474147 -1.385771 -0.872756 1.858285 -1.034427 -3.467699 11.611653 3.471148 -8.146208 -14.253698 8.151330 4.321861 4.855691 1.284197 82.170927 -49.319875 7.968033 18.805467 15.170862 0.446469 -5.969086 2.165209 -6.498949 -0.683181 10.588244 3.310203 -78.388208 -45.415012 -3.471999 -33.743180 21.570969 -7.183792 3.693477 -4.984164 6.066834 115.151188 -79.346394 -126.183796 175.827844 86.476679 179.669674 12.001702 -4.805730 6.533037 0.000000 0.000000 0.000000 159.285662 -82.942463 -146.797877 169.746734 86.961233 165.127181 -11.008370 -4.331607 1.742871 0.000000 0.000000 0.000000
60.189212 50.470951 96.162832 161.538374 6.616599 -0.104796 -2.719777 5.526430 -3.198636 -1.169183 2.474835 -1.387465 -1.169183 2.474835 -1.387465 -0.871134 1.858800 -1.035704 -3.474015 11.609455 3.469948 -8.158016 -14.257224 8.151975 4.321177 4.857971 1.294308 82.158960 -49.318897 7.973514 18.805707 15.172352 0.441564 -5.965809 2.160528 -6.493119 -0.685336 10.586110 3.306515 -78.408624 -45.417404 -3.465428 -33.728142 21.594765 -7.187868 3.694916 -4.991438 6.064272 115.118511 -79.350649 -126.146738 175.916777 86.473881 179.759826 12.002466 -4.808548 6.536792 -0.000000 -0.000000 0.000000 159.288978 -82.949098 -146.795843 169.823588 86.958173 165.206210 -11.003373 -4.333482 1.740961 0.000000 0.000000 0.000000
60.191742 50.470156 96.161585 161.536634 6.609193 -0.108636 -2.715860 5.529019 -3.201568 -1.167390 2.475976 -1.388797 -1.167390 2.475976 -1.388797 -0.869782 1.859654 -1.036708 -3.477355 11.604624 3.466471 -8.163458 -14.266178 8.147292 4.320726 4.860367 1.303522 82.150468 -49.321062 7.975148 18.807062 15.176720 0.437957 -5.963473 2.155962 -6.486461 -0.686329 10.584968 3.302640 -78.429694 -45.416155 -3.454913 -33.715300 21.614174 -7.190336 3.695346 -4.998151 6.061637 115.085793 -79.354546 -126.109617 175.987106 86.471467 179.831597 12.001356 -4.810527 6.540742 0.000000 -0.000000 0.000000 159.298395 -82.955783 -146.800203 169.882825 86.955735 165.267076 -10.999543 -4.334776 1.738455 0.000000 0.000000 0.000000
60.194544 50.469285 96.161456 161.536466 6.601246 -0.112871 -2.713615 5.533762 -3.203324 -1.166337 2.478078 -1.389572 -1.166337 2.478078 -1.389572 -0.868984 1.861230 -1.037289 -3.476129 11.595362 3.459600 -8.159215 -14.284173 8.134664 4.321231 4.862511 1.311044 82.147074 -49.329126 7.971172 18.809960 15.188779 0.436463 -5.962604 2.150942 -6.478941 -0.685198 10.586451 3.298208 -78.452247 -45.407783 -3.436357 -33.706608 21.626597 -7.189398 3.693723 -5.003834 6.058525 115.049513 -79.358099 -126.069390 176.026470 86.469482 179.872954 11.997563 -4.811093 6.544848 0.000000 -0.000000 -0.000000 159.318314 -82.963457 -146.815930 169.907614 86.954132 165.292318 -10.997679 -4.335262 1.734702 0.000000 0.000000 0.000000
60.197564 50.468393 96.162069 161.537118 6.593433 -0.117394 -2.712173 5.539520 -3.204300 -1.165642 2.480634 -1.389986 -1.165642 2.480634 -1.389986 -0.868455 1.863145 -1.037597 -3.471926 11.583467 3.450450 -8.148600 -14.307594 8.116702 4.321969 4.864770 1.317669 82.147158 -49.340335 7.963346 18.813975 15.203714 0.436268 -5.962677 2.146037 -6.470593 -0.682907 10.588925 3.293590 -78.475446 -45.395763 -3.413866 -33.700109 21.634632 -7.186857 3.691091 -5.008958 6.055341 115.013200 -79.361295 -126.029107 176.047352 86.467888 179.896051 11.991895 -4.810818 6.549148 0.000000 0.000000 0.000000 159.344388 -82.971182 -146.838104 169.914939 86.953155 165.299550 -10.996983 -4.335167 1.730354 0.000000 0.000000 0.000000
60.200652 50.467746 96.163224 161.538222 6.588221 -0.121947 -2.710445 5.543898 -3.205038 -1.164834 2.482572 -1.390306 -1.164834 2.482572 -1.390306 -0.867843 1.864597 -1.037836 -3.467174 11.572756 3.442390 -8.137263 -14.328765 8.100452 4.322049 4.868221 1.323213 82.147972 -49.345285 7.953650 18.817966 15.209551 0.435919 -5.961662 2.142295 -6.464001 -0.681148 10.590597 3.289858 -78.497099 -45.381724 -3.393476 -33.694139 21.637568 -7.183544 3.689440 -5.012969 6.052311 114.988774 -79.363863 -126.000586 176.055021 86.467061 179.905033 11.985266 -4.810462 6.553380 0.000000 0.000000 0.000000 159.371803 -82.976210 -146.861738 169.918355 86.952997 165.303077 -10.997449 -4.334713 1.727118 0.000000 0.000000 0.000000
60.203801 50.467428 96.164995 161.539474 6.586854 -0.126597 -2.707972 5.545732 -3.205834 -1.163713 2.483374 -1.390677 -1.163713 2.483374 -1.390677 -0.866999 1.865198 -1.038117 -3.462065 11.564593 3.436849 -8.126032 -14.344992 8.088581 4.320879 4.873148 1.327054 82.148759 -49.337067 7.942613 18.820991 15.197595 0.434533 -5.957693 2.140468 -6.461367 -0.680565 10.588758 3.287903 -78.514219 -45.364031 -3.379975 -33.688306 21.631223 -7.179258 3.689936 -5.014625 6.049464 114.983388 -79.365846 -125.990455 176.043745 86.467333 179.893334 11.977168 -4.810152 6.557542 0.000000 -0.000000 0.000000 159.402254 -82.977318 -146.888143 169.925613 86.953837 165.310614 -10.999261 -4.333962 1.725834 0.000000 0.000000 0.000000
60.207019 50.467357 96.167307 161.541177 6.588087 -0.131277 -2.705215 5.546184 -3.206393 -1.162479 2.483560 -1.390955 -1.162479 2.483560 -1.390955 -0.866072 1.865334 -1.038331 -3.456406 11.557613 3.432398 -8.114083 -14.358970 8.078426 4.319051 4.879266 1.329815 82.150261 -49.322591 7.929714 18.823992 15.176542 0.432991 -5.952637 2.139803 -6.460490 -0.680515 10.586117 3.286834 -78.529793 -45.344324 -3.368573 -33.683002 21.619779 -7.174202 3.691413 -5.015169 6.046771 114.989913 -79.367206 -125.992111 176.019263 86.468370 179.867526 11.968108 -4.809760 6.561635 -0.000000 -0.000000 0.000000 159.433975 -82.975730 -146.915936 169.928971 86.955496 165.314455 -11.002235 -4.332853 1.725662 -0.000000 -0.000000 -0.000000
